HIERARCHY
ROOT Hips
{
	OFFSET	0.000000	0.000000	0.000000
	CHANNELS 6 Xposition Yposition Zposition Xrotation Yrotation Zrotation
	JOINT LowerBack
	{
		OFFSET	0.000000	9.179819	-5.642168
		CHANNELS 3 Xrotation Yrotation Zrotation
		JOINT Spine
		{
			OFFSET	0.000000	11.942610	0.000001
			CHANNELS 3 Xrotation Yrotation Zrotation
			JOINT Spine1
			{
				OFFSET	0.000000	16.828240	0.000001
				CHANNELS 3 Xrotation Yrotation Zrotation
				JOINT Neck
				{
					OFFSET	0.000000	28.228000	0.658470
					CHANNELS 3 Xrotation Yrotation Zrotation
					JOINT Head
					{
						OFFSET	0.000000	9.771228	0.000001
						CHANNELS 3 Xrotation Yrotation Zrotation
						End Site
						{
							OFFSET	0.000000	21.713840	0.000001
						}
					}
				}
				JOINT RightShoulder
				{
					OFFSET	-3.474216	26.056600	0.000001
					CHANNELS 3 Xrotation Yrotation Zrotation
					JOINT RightArm
					{
						OFFSET	-17.153940	-4.342759	1.085692
						CHANNELS 3 Xrotation Yrotation Zrotation
						JOINT RightForeArm
						{
							OFFSET	-34.348130	-2.495277	-1.502431
							CHANNELS 3 Xrotation Yrotation Zrotation
							JOINT RightHand
							{
								OFFSET	-29.009460	0.869954	1.071342
								CHANNELS 3 Xrotation Yrotation Zrotation
								End Site
								{
									OFFSET	-17.383970	-0.564861	0.641547
								}
							}
						}
					}
				}
				JOINT LeftShoulder
				{
					OFFSET	3.474216	26.056600	0.000001
					CHANNELS 3 Xrotation Yrotation Zrotation
					JOINT LeftArm
					{
						OFFSET	17.153940	-4.342759	1.085692
						CHANNELS 3 Xrotation Yrotation Zrotation
						JOINT LeftForeArm
						{
							OFFSET	34.348130	-2.495325	-1.502430
							CHANNELS 3 Xrotation Yrotation Zrotation
							JOINT LeftHand
							{
								OFFSET	29.009450	0.869918	1.071342
								CHANNELS 3 Xrotation Yrotation Zrotation
								End Site
								{
									OFFSET	17.383970	-0.564885	0.641547
								}
							}
						}
					}
				}
			}
		}
	}
	JOINT RightUpLeg
	{
		OFFSET	-9.771230	0.492895	0.000000
		CHANNELS 3 Xrotation Yrotation Zrotation
		JOINT RightLeg
		{
			OFFSET	-0.542844	-47.444740	-0.000003
			CHANNELS 3 Xrotation Yrotation Zrotation
			JOINT RightFoot
			{
				OFFSET	-0.000003	-49.198160	-0.445136
				CHANNELS 3 Xrotation Yrotation Zrotation
				JOINT RightToeBase
				{
					OFFSET	-0.000001	-4.326484	13.414860
					CHANNELS 3 Xrotation Yrotation Zrotation
					End Site
					{
						OFFSET	0.000000	0.000001	7.449727
					}
				}
			}
		}
	}
	JOINT LeftUpLeg
	{
		OFFSET	9.771230	0.492895	0.000000
		CHANNELS 3 Xrotation Yrotation Zrotation
		JOINT LeftLeg
		{
			OFFSET	0.542844	-47.444730	-0.000003
			CHANNELS 3 Xrotation Yrotation Zrotation
			JOINT LeftFoot
			{
				OFFSET	0.000003	-49.198160	-0.445142
				CHANNELS 3 Xrotation Yrotation Zrotation
				JOINT LeftToeBase
				{
					OFFSET	0.000001	-4.326486	13.414860
					CHANNELS 3 Xrotation Yrotation Zrotation
					End Site
					{
						OFFSET	0.000000	0.000000	7.449727
					}
				}
			}
		}
	}
}
MOTION
Frames:	16
Frame Time: 0.0333333000
	5.598220	103.758900	91.246850	-13.016010	14.656080	2.454306	0.000008	-0.000003	0.000001	0.464584	-1.144729	0.629439	1.599318	-3.795378	2.136672	-0.000001	0.000001	0.000000	-0.000001	0.000001	0.000000	0.056625	-0.002318	0.761908	7.113777	13.496550	58.722490	169.313100	80.578670	-167.500400	-0.000001	0.000003	0.000001	-0.168350	-0.011335	2.266812	-14.365880	-22.301150	-74.330530	29.275380	-86.417880	27.644210	-0.000001	0.000000	-0.000001	-89.289850	-6.476878	-0.708863	119.166800	0.363000	-0.817082	-0.733344	1.711662	0.569742	-0.002193	-0.000001	0.000000	4.691219	17.661950	-1.209640	21.706480	-0.186327	0.058271	-0.610113	-2.835254	-1.280784	-10.195000	-0.000001	0.000000
	5.065547	103.784900	90.885990	-10.994130	14.003390	1.390945	0.000010	-0.000001	0.000002	0.374463	-1.160802	0.610277	1.297769	-3.853318	2.066154	0.000000	0.000000	0.000000	0.000000	0.000000	0.000000	0.067723	-0.002694	0.911044	6.914273	12.981220	57.935020	171.642100	78.033200	-169.791300	-0.000001	0.000002	0.000002	-0.213172	-0.015504	2.871516	-13.569150	-22.756750	-73.039050	64.712840	-88.059350	63.048070	0.000002	0.000000	0.000004	-86.126930	-6.872104	0.684049	118.851500	0.364654	-0.814762	-0.635861	1.760896	0.589756	-0.021809	0.000000	0.000000	2.285729	18.036490	-0.436227	21.706660	-0.186331	0.058271	-0.819102	-2.498770	-1.168194	-9.704694	0.000004	0.000000
	4.450704	103.774500	90.415820	-9.115227	13.119040	0.448949	0.000011	-0.000003	0.000002	0.314229	-1.154998	0.580984	1.094193	-3.837119	1.963461	0.000001	-0.000001	0.000000	0.000000	0.000000	0.000000	0.078561	-0.003012	1.056633	6.212075	12.355320	57.639490	173.287100	75.214680	-171.394100	-0.000001	0.000001	-0.000002	-0.264010	-0.020803	3.557933	-13.491420	-23.733990	-71.410650	111.666300	-88.110650	109.979200	-0.000006	0.000002	0.000000	-82.221530	-6.559977	2.465566	117.832400	0.369923	-0.807184	-0.370501	1.525396	0.507249	-0.009992	0.000003	0.000000	-0.094136	18.321630	0.280146	21.848710	-0.187478	0.058868	-1.058627	-2.071145	-1.021288	-9.192195	-0.000002	0.000000
	3.867903	103.716100	89.852560	-7.435360	12.096440	-0.309123	0.000008	-0.000002	0.000003	0.280702	-1.131772	0.540926	0.978254	-3.761863	1.826608	0.000000	0.000000	0.000000	0.000000	0.000000	0.000000	0.086747	-0.003239	1.166551	5.289818	12.407640	56.970170	174.534700	72.021710	-172.593800	-0.000001	0.000003	0.000001	-0.319609	-0.027294	4.309825	-14.449310	-24.824810	-70.202300	129.014700	-87.739810	127.317000	0.000000	0.000002	0.000004	-77.276780	-5.610570	4.498636	115.692000	0.380526	-0.790985	-0.183700	1.001362	0.326950	-0.002106	0.000002	0.000000	-2.371689	18.516570	0.868654	22.134050	-0.189755	0.060082	-1.229784	-1.564555	-0.845815	-8.973289	0.000001	-0.000001
	3.337178	103.615800	89.206490	-5.851376	10.820030	-0.903643	0.000010	0.000000	0.000002	0.270599	-1.095970	0.491038	0.939447	-3.643901	1.658570	0.000001	-0.000001	0.000000	0.000000	0.000000	0.000000	0.089991	-0.003320	1.210157	4.289252	13.205090	56.140770	175.442700	68.707760	-173.451600	0.000001	0.000000	0.000000	-0.377917	-0.034904	5.099601	-15.357470	-25.008170	-69.615670	144.419100	-86.981810	142.706300	0.000001	0.000003	0.000001	-71.383040	-3.951067	6.345627	112.345400	0.395895	-0.764926	-0.278503	0.506378	0.159799	-0.000106	-0.000001	-0.000001	-4.620337	18.627690	1.321802	22.553200	-0.193070	0.061921	-1.389992	-1.049632	-0.667202	-8.830987	0.000001	0.000001
	2.848942	103.487900	88.506160	-4.316778	9.256793	-1.343711	0.000009	-0.000001	0.000001	0.280597	-1.051738	0.433576	0.967128	-3.497316	1.466627	0.000000	0.000001	0.000000	0.000000	0.000000	0.000000	0.086773	-0.003250	1.167020	3.222558	14.663060	55.284440	176.107800	65.432500	-174.066600	0.000000	0.000003	0.000002	-0.435859	-0.043292	5.885818	-15.307450	-24.323410	-69.208100	158.164800	-85.280920	156.423800	0.000000	0.000004	0.000000	-64.722110	-1.886894	7.623175	107.524900	0.415294	-0.725872	-0.461676	0.374827	0.112761	-0.000107	-0.000003	0.000000	-6.841606	18.659680	1.665606	23.041650	-0.196920	0.064050	-1.590773	-0.767542	-0.566837	-8.532387	-0.000002	0.000000
	2.427070	103.348900	87.817370	-2.961689	7.607147	-1.630699	0.000008	-0.000001	0.000002	0.306772	-1.001810	0.371492	1.048667	-3.331526	1.260201	0.000000	0.000000	0.000000	0.000000	0.000000	0.000000	0.076677	-0.002959	1.031328	1.869330	16.859890	54.308410	176.669700	61.830860	-174.572800	-0.000004	0.000000	-0.000002	-0.489488	-0.051778	6.615079	-14.444230	-23.444150	-68.795010	165.464100	-83.018520	163.688200	0.000003	0.000005	0.000002	-57.216090	0.243116	8.408128	100.887400	0.436501	-0.669705	-0.671865	0.485919	0.149683	0.000008	0.000001	-0.000002	-8.862455	18.615630	1.918053	23.563450	-0.201040	0.066402	-1.753449	-0.930662	-0.619103	-8.252198	0.000001	0.000000
	2.077466	103.191700	87.141210	-1.822544	5.943035	-1.771607	0.000009	-0.000001	-0.000001	0.343993	-0.947314	0.307567	1.167228	-3.150533	1.048133	0.000000	0.000000	0.000000	0.000000	0.000000	0.000000	0.060389	-0.002443	0.812437	-0.020765	20.045970	53.741070	177.153700	57.854960	-174.994200	0.000000	0.000000	0.000000	-0.534542	-0.059432	7.228842	-13.150430	-22.437800	-68.426510	169.225400	-80.653620	167.413900	-0.000005	0.000000	0.000002	-49.213580	2.403023	8.982038	92.979090	0.453081	-0.600164	-0.968448	0.574183	0.184789	0.000005	-0.000002	0.000000	-10.649250	18.500070	2.083722	24.137400	-0.205507	0.069015	-1.920165	-1.238725	-0.720411	-8.017390	-0.000001	-0.000001
	1.798725	102.986000	86.411490	-0.755228	4.243898	-1.772447	0.000009	-0.000001	0.000003	0.385592	-0.887974	0.243774	1.300761	-2.953653	0.836428	0.000000	0.000000	0.000000	0.000000	0.000000	0.000000	0.039543	-0.001686	0.532247	-2.647691	23.951900	53.979120	177.539700	53.891550	-175.316700	-0.000001	0.000001	0.000000	-0.567111	-0.065279	7.673252	-11.842420	-21.476730	-68.104700	171.492600	-78.237430	169.644900	0.000002	-0.000001	0.000002	-41.210820	4.308979	8.988290	84.609180	0.460033	-0.524852	-1.224188	0.611669	0.202310	0.000002	0.000002	-0.000001	-12.389590	18.317750	2.150429	24.787290	-0.210579	0.072045	-2.259097	-1.157574	-0.682603	-7.593004	-0.000004	-0.000001
	1.609252	102.726400	85.645320	0.266901	2.665387	-1.640899	0.000010	-0.000001	0.000002	0.423738	-0.822712	0.181011	1.423237	-2.737435	0.627562	0.000000	0.000000	0.000000	0.000000	0.000000	0.000000	0.016355	-0.000732	0.220494	-5.884489	28.435590	54.872380	177.810500	50.568890	-175.533200	-0.000002	-0.000002	-0.000006	-0.584480	-0.068509	7.910442	-11.366840	-21.393340	-68.115400	173.001100	-75.795690	171.116900	-0.000001	-0.000003	-0.000002	-32.862890	5.196950	7.717236	75.497670	0.455061	-0.442652	-1.272242	0.723526	0.241326	0.000006	0.000000	0.000002	-14.073580	18.072760	2.072745	25.440820	-0.215596	0.075111	-2.795146	-0.573530	-0.451394	-6.927593	-0.000004	0.000001
	1.486894	102.435900	84.870240	1.212032	1.312928	-1.455755	0.000006	-0.000002	0.000003	0.450502	-0.750389	0.119434	1.508246	-2.498096	0.421628	0.000000	0.000000	0.000000	0.000000	0.000000	0.000000	-0.006811	0.000345	-0.091007	-9.327435	33.182220	56.438960	177.958200	48.532670	-175.646900	-0.000001	-0.000001	0.000000	-0.587316	-0.069049	7.949259	-12.460120	-22.939340	-68.908050	174.023700	-73.479770	172.104800	0.000000	-0.000001	-0.000001	-24.014850	4.628794	5.423991	65.206440	0.433885	-0.352118	-1.070629	0.883293	0.296369	-0.660010	-0.000004	0.000001	-15.738070	17.754140	1.942609	26.179810	-0.221248	0.078696	-3.375481	0.282505	-0.099357	-6.257701	-0.000002	0.000000
	1.327308	102.143700	83.975750	2.163289	0.069486	-1.297879	0.000009	-0.000001	0.000002	0.459319	-0.670602	0.059184	1.534001	-2.234161	0.218897	0.000000	0.000000	0.000000	0.000000	0.000000	0.000000	-0.027868	0.001445	-0.374187	-12.944350	37.597930	58.516870	177.997300	47.965150	-175.676400	0.000000	0.000000	0.000002	-0.574436	-0.066646	7.773292	-14.496620	-25.418710	-70.114240	174.727900	-71.403740	172.777700	0.000002	0.000001	0.000000	-15.625070	3.030584	2.924458	54.536590	0.395208	-0.263799	-0.751915	0.965772	0.325391	-3.600014	0.000003	0.000000	-17.646630	17.363430	1.943984	27.144210	-0.228570	0.083454	-3.810499	1.092418	0.254154	-5.695400	-0.000001	0.000001
	1.029602	101.854500	82.797300	3.231866	-1.275837	-1.093012	0.000008	-0.000006	0.000004	0.446420	-0.584339	0.001166	1.488083	-1.948674	0.022518	0.000001	0.000001	0.000000	0.000000	0.000000	0.000000	-0.045316	0.002424	-0.608930	-17.607230	42.249990	60.912710	177.958400	48.529190	-175.647200	0.000000	0.000002	0.000000	-0.549846	-0.062149	7.437548	-15.761610	-26.908700	-70.542790	175.335900	-69.157850	173.351600	0.000000	0.000001	0.000001	-8.930405	1.127050	0.605587	45.202460	0.348455	-0.193567	-0.476060	0.693174	0.232824	-8.741504	0.000000	0.000000	-19.964090	17.238610	2.175120	28.256360	-0.236892	0.089118	-4.069202	1.451221	0.446001	-4.912797	0.000001	0.000000
	0.614812	101.503200	81.321590	4.434772	-2.970169	-0.773554	0.000009	-0.000002	0.000000	0.411715	-0.494399	-0.052457	1.370360	-1.650586	-0.159892	0.000000	0.000000	0.000000	0.000000	0.000000	0.000000	-0.058372	0.003198	-0.784525	-23.681370	47.288370	63.790160	177.867100	49.809720	-175.577100	-0.000002	0.000000	-0.000001	-0.516586	-0.056311	6.984128	-16.231110	-27.195970	-69.730190	175.901500	-66.546600	173.877500	0.000000	0.000001	0.000001	-4.261286	-0.623376	-1.557091	38.050240	0.305273	-0.145412	-0.301804	-0.738405	-0.249853	-13.314900	-0.000004	0.000001	-22.740050	17.570190	2.644406	29.598280	-0.246783	0.096146	-4.277313	1.317927	0.447673	-3.901792	-0.000004	0.000000
	0.170831	101.031200	79.725300	5.579184	-4.921175	-0.381215	0.000007	-0.000001	0.000000	0.358830	-0.405313	-0.098369	1.192943	-1.354688	-0.316735	0.000000	0.000000	0.000000	0.000000	0.000000	0.000000	-0.066820	0.003741	-0.898245	-29.559100	51.544050	66.632830	177.721000	51.724510	-175.462600	0.000000	0.000000	0.000000	-0.477538	-0.049810	6.452564	-17.392780	-27.956740	-68.239490	176.277500	-64.440190	174.221100	0.000003	0.000000	-0.000002	-0.689844	-2.103080	-3.520513	31.939610	0.263866	-0.108822	-0.223669	-3.407487	-1.136504	-16.064510	0.000003	-0.000001	-25.676920	17.334910	3.135311	31.233960	-0.258625	0.105028	-4.525186	1.426628	0.527236	-3.064601	-0.000001	0.000000
	-0.308999	100.507800	78.082970	6.440307	-6.616797	0.027319	0.000007	-0.000001	0.000001	0.294180	-0.322786	-0.132776	0.977139	-1.079808	-0.434834	0.000001	-0.000001	0.000000	0.000000	0.000000	0.000000	-0.070740	0.003990	-0.951049	-34.820260	54.799500	69.365380	177.493700	54.409060	-175.279000	0.000000	0.000000	-0.000001	-0.434706	-0.043120	5.870294	-19.199910	-29.538110	-66.386310	176.421500	-63.535710	174.351200	0.000000	0.000000	0.000000	2.617882	-2.918489	-4.982240	25.923330	0.219526	-0.077281	-0.158858	-5.401213	-1.788626	-18.327600	0.000001	0.000000	-28.187130	15.831610	3.236979	32.690790	-0.268953	0.113225	-4.670654	2.246598	0.849607	-2.446797	-0.000002	0.000000
